<?xml version="1.0" encoding="UTF-8"?>
<svg version="1.1" viewBox="0 0 74.451 75.808" xmlns="http://www.w3.org/2000/svg" xmlns:cc="http://creativecommons.org/ns#" xmlns:dc="http://purl.org/dc/elements/1.1/" xmlns:rdf="http://www.w3.org/1999/02/22-rdf-syntax-ns#" xmlns:xlink="http://www.w3.org/1999/xlink">
<metadata>
<rdf:RDF>
<cc:Work rdf:about="">
<dc:format>image/svg+xml</dc:format>
<dc:type rdf:resource="http://purl.org/dc/dcmitype/StillImage"/>
<dc:title>logo-new</dc:title>
</cc:Work>
</rdf:RDF>
</metadata>
<defs>
<style>.a{fill:#015942;}.b{fill:#ed1b5b;}.c{fill:#1dfc51;}.d{fill:url(#ab);}.e{fill:url(#p);}.f{fill:url(#aa);}.g,.h,.i,.k,.l,.m{opacity:0.3;}.g,.h,.i,.k,.l,.m,.p,.q{isolation:isolate;}.g{fill:url(#o);}.h{fill:url(#z);}.i{fill:url(#y);}.j{fill:url(#x);}.k{fill:url(#w);}.l{fill:url(#v);}.m{fill:url(#u);}.n{fill:url(#t);}.o{fill:#fff;}.p,.q{opacity:0.8;}.p{fill:url(#s);}.q{fill:url(#r);}.r{fill:url(#q);}</style>
<linearGradient id="ab" x1="2403.7" x2="2419.8" y1="353.5" y2="391.87" gradientTransform="matrix(.98 .19 -.19 .98 -2261.5 -761.86)" gradientUnits="userSpaceOnUse">
<stop stop-color="#1dfc51" offset="0"/>
<stop stop-color="#25d24e" offset=".2"/>
<stop stop-color="#338148" offset=".54"/>
<stop stop-color="#015942" offset="1"/>
</linearGradient>
<linearGradient id="p" x1="-3683" x2="-3658.5" y1="950.39" y2="927.5" gradientTransform="matrix(-1 0 0 1 -3641.2 -927.94)" gradientUnits="userSpaceOnUse">
<stop stop-color="#e83a95" offset="0"/>
<stop stop-color="#ed64ac" offset=".08"/>
<stop stop-color="#f9cee5" offset=".25"/>
<stop stop-color="#fff" offset=".33"/>
</linearGradient>
<linearGradient id="aa" x1="-3682.9" x2="-3658.4" y1="950.46" y2="927.57" gradientTransform="translate(.019956 -.025461)" xlink:href="#p"/>
<linearGradient id="o" x1="17.44" x2="13.49" y1="936.82" y2="949.41" gradientTransform="translate(0,-927.94)" gradientUnits="userSpaceOnUse">
<stop stop-color="#1dfc51" offset=".49"/>
<stop stop-color="#16d24d" offset=".63"/>
<stop stop-color="#046844" offset=".93"/>
<stop stop-color="#015942" offset=".97"/>
</linearGradient>
<linearGradient id="z" x1="22.09" x2="12.94" y1="939.03" y2="948.71" gradientTransform="translate(.019956 -.025461)" xlink:href="#o"/>
<linearGradient id="y" x1="19.77" x2="12.09" y1="941.48" y2="949.61" gradientTransform="translate(.019956 -.025461)" xlink:href="#o"/>
<linearGradient id="x" x1="29.84" x2="36.19" y1="945.91" y2="994.48" gradientTransform="translate(.019956 -927.97)" gradientUnits="userSpaceOnUse">
<stop stop-color="#015942" offset="0"/>
<stop stop-color="#01462d" offset=".26"/>
<stop stop-color="#002103" offset=".81"/>
</linearGradient>
<linearGradient id="w" x1="10.42" x2="23.38" y1="951.93" y2="936.16" gradientTransform="translate(.019956 -927.97)" gradientUnits="userSpaceOnUse">
<stop stop-color="#015942" offset="0"/>
<stop stop-color="#379145" offset=".28"/>
<stop stop-color="#60bb47" offset=".51"/>
</linearGradient>
<linearGradient id="v" x1="10.42" x2="23.38" y1="951.93" y2="936.16" gradientTransform="translate(.019956 -927.97)" gradientUnits="userSpaceOnUse">
<stop stop-color="#015942" offset="0"/>
<stop stop-color="#046844" offset=".04"/>
<stop stop-color="#16d24d" offset=".37"/>
<stop stop-color="#1dfc51" offset=".51"/>
</linearGradient>
<linearGradient id="u" x1="12.81" x2="23.1" y1="949.03" y2="936.49" gradientTransform="translate(.019956 -927.97)" gradientUnits="userSpaceOnUse">
<stop stop-color="#015942" offset="0"/>
<stop stop-color="#60bb47" stop-opacity="0" offset="1"/>
</linearGradient>
<linearGradient id="t" x1="52.31" x2="44.4" y1="911.47" y2="949.68" gradientTransform="translate(.019956 -927.97)" gradientUnits="userSpaceOnUse">
<stop stop-color="#60bb47" offset="0"/>
<stop stop-color="#379145" offset=".45"/>
<stop stop-color="#015942" offset="1"/>
</linearGradient>
<linearGradient id="s" x1="26" x2="26" y1="927.97" y2="955.01" gradientTransform="translate(.019956 -927.97)" gradientUnits="userSpaceOnUse">
<stop stop-color="#1dfc51" offset="0"/>
<stop stop-color="#16d24d" offset=".19"/>
<stop stop-color="#046844" offset=".63"/>
<stop stop-color="#015942" offset=".68"/>
</linearGradient>
<linearGradient id="r" x1="26" x2="26" y1="925.48" y2="952.52" gradientTransform="translate(.019956 -927.97)" gradientUnits="userSpaceOnUse">
<stop stop-color="#1dfc51" offset="0"/>
<stop stop-color="#16d24d" offset=".28"/>
<stop stop-color="#046844" offset=".92"/>
<stop stop-color="#015942" offset="1"/>
</linearGradient>
<linearGradient id="q" x1="43.59" x2="25.81" y1="964.57" y2="981.08" gradientTransform="translate(.019956 -927.97)" gradientUnits="userSpaceOnUse">
<stop stop-color="#015942" offset="0"/>
<stop stop-color="#046844" offset=".08"/>
<stop stop-color="#16d24d" offset=".72"/>
<stop stop-color="#1dfc51" offset="1"/>
</linearGradient>
<linearGradient id="ad" x1="-3683" x2="-3658.5" y1="950.39" y2="927.5" gradientTransform="matrix(-1 0 0 1 -3641.2 -927.97)" gradientUnits="userSpaceOnUse" xlink:href="#p"/>
<linearGradient id="ac" x1="17.44" x2="13.49" y1="936.82" y2="949.41" gradientTransform="translate(.019956 -927.97)" gradientUnits="userSpaceOnUse" xlink:href="#o"/>
</defs>
<title>logo-new</title>
<path class="a" d="m7.7324 65.738h-2.2031a5.3301 5.2623 0 0 1-0.071068-0.77181 5.3017 5.2343 0 0 1 0.071068-0.73672h6.1829a5.3017 5.2343 0 0 1 0.07107 0.73672 5.3301 5.2623 0 0 1-0.07107 0.77181h-2.2031v7.1918c-0.14214 0-0.28427 0.03508-0.42641 0.03508-0.14214 0-0.28427 0.03508-0.42641 0.03508h-0.46194c-0.14214 0-0.31981-0.03508-0.49748-0.03508v-7.2269z" fill="#015942" stroke-width=".35307"/>
<path class="a" d="m14.022 73.07a3.2691 3.2276 0 0 1-1.3503-0.24558 2.7077 2.6733 0 0 1-0.95942-0.70164 3.1981 3.1574 0 0 1-0.56854-1.0174 3.7169 3.6696 0 0 1-0.17767-1.263 5.3301 5.2623 0 0 1 0.17767-1.298 3.8412 3.7924 0 0 1 0.56854-1.0525 2.8214 2.7855 0 0 1 0.95942-0.70164 3.1625 3.1223 0 0 1 1.3503-0.24558 3.2691 3.2276 0 0 1 1.3503 0.24558 2.427 2.3961 0 0 1 0.95942 0.70164 3.0453 3.0065 0 0 1 0.56855 1.0525 5.1098 5.0448 0 0 1 0.17767 1.298 4.8362 4.7747 0 0 1-0.17767 1.263 3.8412 3.7924 0 0 1-0.56855 1.0525 2.8214 2.7855 0 0 1-0.95942 0.70164 3.8448 3.7959 0 0 1-1.3503 0.21049zm0-1.298a1.1087 1.0946 0 0 0 0.99496-0.49115 2.7965 2.761 0 0 0 0.28427-1.4384 3.1021 3.0627 0 0 0-0.28427-1.4384 1.0411 1.0279 0 0 0-0.99496-0.49115 1.0127 0.99984 0 0 0-0.95942 0.49115 2.7965 2.761 0 0 0-0.28427 1.4384 3.1021 3.0627 0 0 0 0.28427 1.4384 1.066 1.0525 0 0 0 0.95942 0.49115z" fill="#015942" stroke-width=".35307"/>
<path class="a" d="m17.789 66.685a0.98429 0.97178 0 0 1 0.31981-0.03508h0.39088a5.3301 5.2623 0 0 1 0.71068 0.07016c0.03553 0.03508 0.03553 0.10525 0.07107 0.17541 0.03553 0.07016 0.03553 0.17541 0.07107 0.24558a0.71068 0.70164 0 0 1 0.03553 0.24558c0 0.07016 0.03553 0.14033 0.03553 0.21049a2.7113 2.6768 0 0 1 0.28427-0.3859 1.1122 1.0981 0 0 1 0.39087-0.31574 2.1711 2.1435 0 0 1 0.49748-0.24558 1.7198 1.698 0 0 1 0.63961-0.10525 3.0844 3.0451 0 0 1 0.99496 0.17541 2.228 2.1997 0 0 1 0.81728 0.5964 3.2834 3.2416 0 0 1 0.53301 0.9823 4.3209 4.266 0 0 1 0.17767 1.4033 3.6209 3.5749 0 0 1-0.24874 1.4033 2.8818 2.8452 0 0 1-1.7412 1.719 4.456 4.3993 0 0 1-1.4569 0.24558 1.7305 1.7085 0 0 1-0.42641-0.03508c-0.14214 0-0.24874-0.03508-0.31981-0.03508v2.7715a2.0254 1.9997 0 0 1-0.46194 0.03508h-0.85282c-0.14214 0-0.28427-0.03508-0.46194-0.03508zm1.7412 4.9115a2.363 2.333 0 0 0 0.74622 0.10525 1.4995 1.4805 0 0 0 1.1726-0.49115c0.28427-0.31574 0.39088-0.80689 0.39088-1.4734a4.3742 4.3186 0 0 0-0.07107-0.70164 1.5706 1.5506 0 0 0-0.2132-0.56131 1.13 1.1156 0 0 0-0.35534-0.35082 0.90257 0.89109 0 0 0-0.56854-0.14033 1.1868 1.1717 0 0 0-0.53301 0.10525 1.0092 0.99633 0 0 0-0.35534 0.31574 1.8371 1.8137 0 0 0-0.2132 0.45607 2.761 2.7259 0 0 0-0.07107 0.56132z" fill="#015942" stroke-width=".35307"/>
<path class="a" d="m30.403 71.281a4.1788 4.1257 0 0 1 0.24874 0.70164 6.2753 6.1955 0 0 1 0.14214 0.70164 11.694 11.546 0 0 1-1.1371 0.31574 10.76 10.623 0 0 1-1.1016 0.07016 4.7189 4.6589 0 0 1-1.8122-0.31574 3.2407 3.1995 0 0 1-1.3148-0.94722 4.026 3.9748 0 0 1-0.81728-1.4033 5.92 5.8447 0 0 1 0-3.5784 4.1859 4.1327 0 0 1 0.81728-1.4384 4.0615 4.0099 0 0 1 1.3148-0.94722 4.655 4.5958 0 0 1 1.7767-0.35082 9.4556 9.3354 0 0 1 1.066 0.07016 3.5534 3.5082 0 0 1 1.066 0.31574 2.2991 2.2698 0 0 1-0.14214 0.70164 5.9235 5.8482 0 0 1-0.28427 0.70164 4.0935 4.0415 0 0 0-0.74622-0.21049 4.9002 4.8378 0 0 0-0.78175-0.07016 2.2564 2.2277 0 0 0-1.8122 0.73672c-0.42641 0.49115-0.63961 1.263-0.63961 2.2453 0 1.9646 0.85282 2.9469 2.5229 2.9469a4.9002 4.8378 0 0 0 0.78175-0.07017 2.4412 2.4101 0 0 0 0.85282-0.17541z" fill="#015942" stroke-width=".35307"/>
<path class="a" d="m34.667 68.825a0.88835 0.87705 0 0 0-0.1066-0.45607 0.71068 0.70164 0 0 0-0.28427-0.28066 1.1975 1.1823 0 0 0-0.42641-0.14033 2.8712 2.8346 0 0 0-0.56855-0.03508 4.2819 4.2274 0 0 0-1.4214 0.24558 2.7219 2.6873 0 0 1-0.24874-0.5964 1.9721 1.9471 0 0 1-0.07107-0.66656c0.35534-0.10525 0.71068-0.21049 1.066-0.28066a4.8611 4.7992 0 0 1 0.99496-0.07016 3.024 2.9855 0 0 1 1.9899 0.5964c0.46194 0.3859 0.71068 1.0525 0.71068 1.9295v3.6135a6.2718 6.192 0 0 1-1.0305 0.24557 7.8495 7.7496 0 0 1-1.3858 0.10525 5.6215 5.55 0 0 1-1.1371-0.10525 2.8996 2.8627 0 0 1-0.88835-0.35082 1.7554 1.7331 0 0 1-0.56855-0.66656 2.164 2.1365 0 0 1-0.2132-0.9823 1.8016 1.7787 0 0 1 0.24874-0.9823 2.7326 2.6978 0 0 1 0.63961-0.63148 2.4554 2.4242 0 0 1 0.88835-0.35082 4.4951 4.4379 0 0 1 0.99496-0.10525 6.0408 5.964 0 0 1 0.78175 0.03508zm0 1.263c-0.1066 0-0.2132-0.03508-0.31981-0.03508s-0.2132-0.03508-0.31981-0.03508a1.9188 1.8944 0 0 0-0.95942 0.21049 0.732 0.72269 0 0 0-0.35534 0.66656 0.71068 0.70164 0 0 0 0.14214 0.49115 0.98074 0.96827 0 0 0 0.31981 0.24557 1.6026 1.5822 0 0 0 0.39088 0.10525c0.14214 0 0.28427 0.03508 0.39088 0.03508a1.2082 1.1928 0 0 0 0.35534-0.03508c0.1066-0.03508 0.2132-0.03508 0.31981-0.07016z" fill="#015942" stroke-width=".35307"/>
<path class="a" d="m38.754 70.229a2.5229 2.4908 0 0 1-1.066-0.56131 1.6061 1.5857 0 0 1-0.39087-1.1577 1.7376 1.7155 0 0 1 0.67515-1.4384 2.8925 2.8557 0 0 1 1.8122-0.52623 7.5012 7.4058 0 0 1 0.92389 0.07016 9.5267 9.4055 0 0 1 0.95942 0.24558 5.2626 5.1957 0 0 1-0.1066 0.66656 3.0737 3.0346 0 0 1-0.24874 0.5964l-0.63962-0.21049a2.7041 2.6698 0 0 0-0.74622-0.10525 1.066 1.0525 0 0 0-0.63961 0.14033 0.49392 0.48764 0 0 0-0.24874 0.42099 0.45839 0.45256 0 0 0 0.17767 0.3859 2.8783 2.8417 0 0 0 0.46194 0.21049l0.71068 0.21049a3.0737 3.0346 0 0 1 0.60408 0.24558 1.5955 1.5752 0 0 1 0.46194 0.35082 1.4889 1.4699 0 0 1 0.31981 0.49115 2.2138 2.1856 0 0 1 0.1066 0.73673 2.4412 2.4101 0 0 1-0.17767 0.84197 2.0645 2.0383 0 0 1-0.56855 0.66656 2.992 2.9539 0 0 1-0.88835 0.45607 4.058 4.0064 0 0 1-1.1726 0.17541 2.3524 2.3224 0 0 1-0.53301-0.03508 1.8016 1.7787 0 0 1-0.46194-0.07016c-0.14214-0.03508-0.28427-0.07016-0.46194-0.10525-0.17767-0.03508-0.31981-0.10525-0.46194-0.14033a5.2626 5.1957 0 0 1 0.1066-0.66656 4.7438 4.6835 0 0 1 0.24874-0.63148c0.28427 0.10525 0.53301 0.17541 0.74622 0.24558a5.3017 5.2343 0 0 0 0.74622 0.07016 1.2082 1.1928 0 0 0 0.35534-0.03508l0.39088-0.10525a0.85637 0.84548 0 0 0 0.28427-0.21049 0.49748 0.49115 0 0 0 0.1066-0.31574 0.58987 0.58236 0 0 0-0.17767-0.42098 1.3041 1.2875 0 0 0-0.49748-0.21049z" fill="#015942" stroke-width=".35307"/>
<path class="a" d="m42.591 64.089a1.7305 1.7085 0 0 1 0.42641-0.03508h0.85282c0.14214 0 0.28427 0.03508 0.42641 0.03508v3.3328c0.07107-0.07016 0.14214-0.17541 0.2132-0.24558a1.3929 1.3752 0 0 1 0.35534-0.28066c0.14214-0.07016 0.31981-0.17541 0.49748-0.24558a2.0681 2.0418 0 0 1 0.67514-0.10525 1.9437 1.919 0 0 1 1.599 0.5964c0.35534 0.3859 0.53301 0.9823 0.53301 1.8243v3.9994a1.7305 1.7085 0 0 1-0.42641 0.03508h-0.85282c-0.14214 0-0.28427-0.03508-0.42641-0.03508v-3.5433a2.132 2.1049 0 0 0-0.2132-1.0174 0.75332 0.74374 0 0 0-0.71068-0.35082 1.7767 1.7541 0 0 0-0.42641 0.07016 0.67515 0.66656 0 0 0-0.39088 0.24558 1.3112 1.2945 0 0 0-0.28428 0.49115 2.6828 2.6487 0 0 0-0.1066 0.80689v3.2977a1.7305 1.7085 0 0 1-0.42641 0.03508h-0.85282c-0.14214 0-0.28428-0.03508-0.42641-0.03508z" fill="#015942" stroke-width=".35307"/>
<path class="a" d="m49.236 64.089a5.1524 5.0869 0 0 1 1.7056 0v3.1925a1.2899 1.2735 0 0 1 0.60408-0.52623 2.164 2.1365 0 0 1 0.99496-0.21049 3.3011 3.2591 0 0 1 1.0305 0.17541 2.228 2.1997 0 0 1 0.81728 0.5964 3.2834 3.2416 0 0 1 0.53301 0.9823 4.2641 4.2099 0 0 1 0.2132 1.4033 3.6209 3.5749 0 0 1-0.24874 1.4033 2.8107 2.775 0 0 1-0.71068 1.0525 3.0275 2.989 0 0 1-1.1371 0.66656 5.0956 5.0308 0 0 1-1.528 0.24558 3.2514 3.21 0 0 1-0.56854-0.03508 3.5001 3.4556 0 0 1-0.60408-0.07016c-0.2132-0.03508-0.39088-0.07016-0.56855-0.10525-0.17767-0.03508-0.35534-0.10525-0.49748-0.14033zm1.7056 7.5076c0.1066 0.03508 0.2132 0.03508 0.3198 0.07016h0.31981a1.5848 1.5647 0 0 0 1.2437-0.45607 2.1001 2.0734 0 0 0 0.46194-1.4384 2.729 2.6943 0 0 0-0.28427-1.3331 0.9914 0.97879 0 0 0-0.95942-0.45607 1.1264 1.1121 0 0 0-0.81728 0.31574 1.4214 1.4033 0 0 0-0.31981 1.0174z" fill="#015942" stroke-width=".35307"/>
<path class="a" d="m59.257 68.825a0.88835 0.87705 0 0 0-0.1066-0.45607 0.71068 0.70164 0 0 0-0.28428-0.28066 1.1975 1.1823 0 0 0-0.42641-0.14033 2.8712 2.8346 0 0 0-0.56854-0.03508 4.2819 4.2274 0 0 0-1.4214 0.24558 2.7219 2.6873 0 0 1-0.24874-0.5964 1.9721 1.9471 0 0 1-0.07107-0.66656c0.35534-0.10525 0.71068-0.21049 1.066-0.28066a4.8611 4.7992 0 0 1 0.99496-0.07016 3.024 2.9855 0 0 1 1.9899 0.5964c0.46194 0.3859 0.71068 1.0525 0.71068 1.9295v3.6135a6.2718 6.192 0 0 1-1.0305 0.24557 7.8495 7.7496 0 0 1-1.3858 0.10525 5.6215 5.55 0 0 1-1.1371-0.10525 2.8996 2.8627 0 0 1-0.88835-0.35082 1.5315 1.512 0 0 1-0.56855-0.66656 2.164 2.1365 0 0 1-0.2132-0.9823 1.8016 1.7787 0 0 1 0.24874-0.9823 2.7326 2.6978 0 0 1 0.63961-0.63148 3.3189 3.2767 0 0 1 0.88836-0.35082 4.4951 4.4379 0 0 1 0.99496-0.10525 6.0408 5.964 0 0 1 0.78175 0.03508zm0 1.263c-0.1066 0-0.2132-0.03508-0.3198-0.03508-0.1066 0-0.2132-0.03508-0.31981-0.03508a1.9188 1.8944 0 0 0-0.95942 0.21049 0.732 0.72269 0 0 0-0.35534 0.66656 0.71068 0.70164 0 0 0 0.14214 0.49115 0.98074 0.96827 0 0 0 0.3198 0.24557 1.6026 1.5822 0 0 0 0.39088 0.10525c0.14214 0 0.28428 0.03508 0.35534 0.03508a1.2082 1.1928 0 0 0 0.35534-0.03508c0.1066-0.03508 0.2132-0.03508 0.31981-0.07016z" fill="#015942" stroke-width=".35307"/>
<path class="a" d="m66.364 71.457a2.7503 2.7154 0 0 1 0.24874 0.56132 2.4412 2.4101 0 0 1 0.1066 0.77181 3.2656 3.224 0 0 1-0.92389 0.24558 6.922 6.834 0 0 1-0.88835 0.07016 3.3295 3.2872 0 0 1-1.3858-0.24558 2.7432 2.7083 0 0 1-0.95942-0.66656 2.658 2.6241 0 0 1-0.56854-1.0174 3.9088 3.859 0 0 1-0.2132-1.298 5.3301 5.2623 0 0 1 0.17767-1.298 3.8412 3.7924 0 0 1 0.56855-1.0525 2.427 2.3961 0 0 1 0.95942-0.70164 3.1625 3.1223 0 0 1 1.3503-0.24558h0.49748c0.14214 0 0.28427 0.03508 0.42641 0.03508l0.42641 0.10525c0.14214 0.03508 0.28427 0.10525 0.46194 0.14033a4.9925 4.929 0 0 1-0.07107 0.63148 2.1996 2.1716 0 0 1-0.24874 0.66656c-0.24874-0.07016-0.46194-0.14033-0.63962-0.17541a3.4539 3.41 0 0 0-0.63962-0.03508 1.3787 1.3612 0 0 0-1.1371 0.49115 2.331 2.3014 0 0 0-0.39088 1.4033 2.1001 2.0734 0 0 0 0.42641 1.4384 1.5209 1.5015 0 0 0 1.1371 0.45607h0.31981a0.71068 0.70164 0 0 0 0.28427-0.03508 0.66804 0.65954 0 0 0 0.28428-0.07017c0.14214-0.07016 0.24874-0.10525 0.39088-0.17541z" fill="#015942" stroke-width=".35307"/>
<path class="a" d="m67.465 64.089a5.1524 5.0869 0 0 1 1.7056 0v8.8407a5.1524 5.0869 0 0 1-1.7056 0z" fill="#015942" stroke-width=".35307"/>
<path class="a" d="m71.623 73.07a0.28427 0.28066 0 0 1-0.28427-0.14033l-2.4519-2.9469a0.26651 0.26312 0 0 1-0.03552-0.17541c0-0.07016 0.03552-0.10525 0.03552-0.17541 0 0 1.9544-2.3154 2.4519-2.9469a0.28427 0.28066 0 0 1 0.28427-0.14033h1.8122c0.03555 0 0.14214 0.07016 0.03555 0.17541-0.56855 0.66656-2.4519 2.9118-2.4519 2.9118a0.26651 0.26312 0 0 0-0.03552 0.17541c0 0.07016 0.03552 0.10525 0.03552 0.17541 0 0 1.8833 2.2453 2.4519 2.9118 0.1066 0.10525 0 0.17541-0.03555 0.17541z" fill="#015942" stroke-width=".35307"/>
<path class="b" d="m29.72 31.075 0.3-1.2a4.88 4.88 0 0 0 0.3-0.7c8-10.4 19.1-10.5 31.2-8.2a58.28 58.28 0 0 1 12.8 4.1c0.2 0.1 0.2 0.6-0.2 0.5-10.9-3.5-19.3-2.1-25.5 0.5a25.89 25.89 0 0 0-10.5 7.6c-4.3 1.9-8.5 0.3-8.4-2.6z" fill="#ed1b5b"/>
<path class="c" d="m15.72 0.77454c-0.2-0.8 1.2-1.2 2.4-0.1 6.4 5.4 12.4 18.2 17.9 16.2-1.4 1.2-2.8 2-4.3 1.7-3.3-0.9-8-3.4-13-6.1a88.49 88.49 0 0 1-3-11.7z" fill="#1dfc51"/>
<path class="d" d="m31.62 62.075c-6.3-7.6-9-17.8-4.2-28.5a24.73 24.73 0 0 0-1.1 3.6c-1.6 8.3 5.2 16.5 11.2 18.2 0.3 0.1 0.3 0.4 0 0.6a7 7 0 0 0-4.8 4.8 4.87 4.87 0 0 0-0.1 1.2c0 0.5-0.6 0.6-1 0.1z" fill="url(#ab)"/>
<path class="e" d="m30.02 29.775 0.3-0.6c8-10.5 19.1-10.6 31.2-8.2 0.3 0.1 0.7 0.1 1 0.2s0.5 0.1 0.8 0.2c-10.3-1.2-23.6 1-28.7 13.1-3.3 0-5.7-2-4.6-4.7z" fill="url(#ad)"/>
<path class="f" d="m29.82 29.875c0.1-0.2 0.4-0.5 0.4-0.7 8-10.5 19.1-10.6 31.2-8.2 0.3 0.1 0.7 0.1 1 0.2s0.5 0.1 0.8 0.2c-10.3-1.2-23.6 1-28.7 13.1-3.2 0-5.8-1.9-4.7-4.6z" fill="url(#aa)"/>
<path class="g" d="m26.22 32.575c-3.5-2-14-9-25.8-26.5 4.9 1.9 33.7 15.7 27.1 27.2h-0.3a0.1 0.1 0 0 1-0.1-0.1h-0.1a0.1 0.1 0 0 1-0.1-0.1c-0.1-0.1-0.2-0.1-0.3-0.2-0.2-0.2-0.3-0.2-0.4-0.3z" fill="url(#ac)" opacity=".3" style="isolation:isolate"/>
<path class="h" d="m26.22 32.575c-3.5-2-14-9-25.8-26.5 4.9 1.9 33.7 15.7 27.1 27.2h-0.3a0.1 0.1 0 0 1-0.1-0.1h-0.1a0.1 0.1 0 0 1-0.1-0.1c-0.1-0.1-0.2-0.1-0.3-0.2-0.2-0.2-0.3-0.2-0.4-0.3z" fill="url(#z)" opacity=".3" style="isolation:isolate"/>
<path class="i" d="m26.22 32.575c-3.5-2-14-9-25.8-26.5 4.9 1.9 33.7 15.7 27.1 27.2h-0.3a0.1 0.1 0 0 1-0.1-0.1h-0.1a0.1 0.1 0 0 1-0.1-0.1c-0.1-0.1-0.2-0.1-0.3-0.2-0.2-0.2-0.3-0.2-0.4-0.3z" fill="url(#y)" opacity=".3" style="isolation:isolate"/>
<path class="j" d="m32.92 52.975c-0.1-0.1-0.2-0.2-0.3-0.2s-0.2-0.1-0.2-0.2-0.2-0.2-0.3-0.2-0.2-0.1-0.2-0.2l-1-1c-0.1-0.1-0.1-0.2-0.2-0.2l-0.3-0.3c-0.1-0.1-0.1-0.2-0.2-0.3s-0.2-0.2-0.2-0.3-0.1-0.2-0.2-0.3-0.1-0.2-0.2-0.3-0.1-0.2-0.2-0.3-0.1-0.2-0.2-0.3-0.1-0.2-0.2-0.3-0.1-0.2-0.2-0.3-0.1-0.2-0.2-0.3-0.1-0.2-0.2-0.3-0.1-0.2-0.2-0.3-0.1-0.2-0.2-0.3-0.1-0.2-0.2-0.3a0.37 0.37 0 0 1-0.1-0.3c-0.1-0.1-0.1-0.2-0.2-0.4s-0.1-0.2-0.1-0.3-0.1-0.3-0.2-0.4a0.35 0.35 0 0 0-0.1-0.2 8.8 8.8 0 0 1-0.5-1.5 0.37 0.37 0 0 0-0.1-0.3c0-0.1-0.1-0.3-0.1-0.4a0.37 0.37 0 0 0-0.1-0.3c0-0.1-0.1-0.3-0.1-0.4a0.37 0.37 0 0 0-0.1-0.3 0.6 0.6 0 0 0-0.1-0.4v-2.1a18 18 0 0 1 0.2-2.2 20.14 20.14 0 0 1 1-3.5c0.1-0.1 0.1-0.3 0.2-0.4s-12.7-5.7-27.3-27.5c-0.6-1 1.2-1.4 2.1-1.1 8.8 2.3 22.3 11.9 29.5 13.7 6.5 1.7 10.2-18.4 24.6-1.7 0.7 0.8 1.2 1.4 1.7 1.9s0.2 0.6-0.3 0.5a33.08 33.08 0 0 0-5.9-1.2c-0.4 0-0.4-0.1-0.5-0.4a2.34 2.34 0 0 0-2.2-1 2.46 2.46 0 0 0-2.2 1c-0.1 0.3-0.2 0.3-0.4 0.4-6.2 0.5-13 3.3-16.5 11.8-1.5 3.6 3.6 5.5 8.9 2.9a26.43 26.43 0 0 0-5.5 10.3 16.15 16.15 0 0 0-0.6 3.3 26.42 26.42 0 0 0-0.2 2.9 23.4 23.4 0 0 0 0.3 3.8z" fill="url(#x)"/>
<path class="k" d="m26.22 32.575c-3.5-2-14-9-25.8-26.5 4.9 1.9 33.7 15.7 27.1 27.2h-0.3a0.1 0.1 0 0 1-0.1-0.1h-0.1a0.1 0.1 0 0 1-0.1-0.1c-0.1-0.1-0.2-0.1-0.3-0.2-0.2-0.2-0.3-0.2-0.4-0.3z" fill="url(#w)" opacity=".3" style="isolation:isolate"/>
<path class="l" d="m26.22 32.575c-3.5-2-14-9-25.8-26.5 4.9 1.9 33.7 15.7 27.1 27.2h-0.3a0.1 0.1 0 0 1-0.1-0.1h-0.1a0.1 0.1 0 0 1-0.1-0.1c-0.1-0.1-0.2-0.1-0.3-0.2-0.2-0.2-0.3-0.2-0.4-0.3z" fill="url(#v)" opacity=".3" style="isolation:isolate"/>
<path class="m" d="m26.22 32.575c-3.5-2-14-9-25.8-26.5 4.9 1.9 30.2 18.5 27.1 27.2h-0.3a0.1 0.1 0 0 1-0.1-0.1h-0.1a0.1 0.1 0 0 1-0.1-0.1c-0.1-0.1-0.2-0.1-0.3-0.2-0.2-0.2-0.3-0.2-0.4-0.3z" fill="url(#u)" opacity=".3" style="isolation:isolate"/>
<path class="n" d="m32.12 18.575m0.1 0m-0.4 0m26.2 0.2c-0.5-0.5-1.1-1.2-1.8-1.9-10.2-12-15-5.2-19.3-0.9l-0.3 0.3a8.94 8.94 0 0 1-2.8 2.1 0.1 0.1 0 0 0-0.1 0.1c-0.1 0-0.1 0-0.2 0.1h-1.6c6.3 0.7 10.2-14.2 25.5 0.6h0.3c0.6 0.1 0.6-0.1 0.3-0.4z" fill="url(#t)"/>
<path class="o" d="m57.82 19.275a4.17 4.17 0 0 1-0.6-0.2h-0.2a26.17 26.17 0 0 0-5.4-1c-0.5 0-0.3-0.1-0.5-0.4a2.34 2.34 0 0 0-2.2-1 2.58 2.58 0 0 0-2.2 1c-0.1 0.3-0.2 0.3-0.4 0.4-6.1 0.5-12.7 3.2-16.2 11.2 8-10.4 19.1-10.5 31.2-8.2 0.8 0.2 1.7 0.4 2.8 0.6z" fill="#fff"/>
<path class="p" d="m16.12 3.0745c0-0.3-0.1-0.6-0.1-0.8 10.1 8.1 13.2 19.1 20 14.6-1.4 1.2-2.7 2-4.3 1.6-3.3-0.9-8-3.4-13-6.1a84.65 84.65 0 0 1-2.6-9.3z" fill="url(#s)" opacity=".8" style="isolation:isolate"/>
<path class="q" d="m16.12 3.0745c0-0.3-0.1-0.6-0.1-0.8 10.1 8.1 13.2 19.1 20 14.6-1.4 1.2-2.7 2-4.3 1.6-3.3-0.9-8-3.4-13-6.1a84.65 84.65 0 0 1-2.6-9.3z" fill="url(#r)" opacity=".8" style="isolation:isolate"/>
<path class="r" d="m37.42 55.975a7.78 7.78 0 0 0-4.1 3.1 25.9 25.9 0 0 1-7.3-19.8c-0.3 7.6 5.9 14.6 11.5 16.1 0.3 0.1 0.3 0.4-0.1 0.6z" fill="url(#q)"/>
</svg>
